<?xml version="1.0" encoding="iso-8859-1"?>
<!-- Generator: Adobe Illustrator 19.0.0, SVG Export Plug-In . SVG Version: 6.00 Build 0)  -->
<svg version="1.1" id="Layer_1" xmlns="http://www.w3.org/2000/svg" xmlns:xlink="http://www.w3.org/1999/xlink" x="0px" y="0px"
	 viewBox="0 0 512 512" style="enable-background:new 0 0 512 512;" xml:space="preserve">
<g>
	<path style="fill:#FF4F19;" d="M512,237.714h-43.458C459.749,134.64,377.36,52.251,274.286,43.459V0h-36.571v43.459
		C134.64,52.251,52.251,134.64,43.459,237.714H0v36.571h43.459c8.792,103.074,91.181,185.463,194.255,194.255V512h36.571v-43.459
		c103.074-8.792,185.463-91.181,194.256-194.255H512V237.714z M274.286,431.821v-41.726h-36.571v41.726
		c-82.895-8.559-148.976-74.64-157.535-157.535h41.726v-36.571H80.179c8.559-82.895,74.64-148.976,157.535-157.535v41.726h36.571
		V80.179c82.895,8.559,148.976,74.64,157.535,157.535h-41.726v36.571h41.726C423.262,357.181,357.181,423.262,274.286,431.821z"/>
	<polygon style="fill:#FF4F19;" points="274.286,195.048 237.714,195.048 237.714,237.714 195.048,237.714 195.048,274.286 
		237.714,274.286 237.714,316.952 274.286,316.952 274.286,274.286 316.952,274.286 316.952,237.714 274.286,237.714 	"/>
</g>
<g>
	<path style="fill:#FC0023;" d="M468.542,237.714C459.749,134.64,377.36,52.251,274.286,43.459V0H256v121.905h18.286V80.179
		c82.895,8.559,148.976,74.64,157.535,157.535h-41.726v36.571h41.726c-8.559,82.895-74.64,148.976-157.535,157.535v-41.726H256V512
		h18.286v-43.459c103.074-8.792,185.463-91.181,194.256-194.255H512v-36.571H468.542z"/>
	<polygon style="fill:#FC0023;" points="274.286,274.286 316.952,274.286 316.952,237.714 274.286,237.714 274.286,195.048 
		256,195.048 256,316.952 274.286,316.952 	"/>
</g>
<g>
</g>
<g>
</g>
<g>
</g>
<g>
</g>
<g>
</g>
<g>
</g>
<g>
</g>
<g>
</g>
<g>
</g>
<g>
</g>
<g>
</g>
<g>
</g>
<g>
</g>
<g>
</g>
<g>
</g>
</svg>
